<?xml version="1.0" encoding="utf-8" ?>
<svg xmlns="http://www.w3.org/2000/svg" xmlns:xlink="http://www.w3.org/1999/xlink" width="512" height="512">
	<path fill="white" transform="scale(0.666667 0.666667)" d="M-0 -0L768 0L768 768L-0 768L0 -0Z"/>
	<path fill="#242424" transform="scale(0.666667 0.666667)" d="M375.11 30.5437C396.643 29.7773 418.503 31.8532 439.697 35.6295C501.038 46.5594 558.355 73.3467 605.989 113.581C627.941 132.122 648.717 152.619 666.668 175.107C679.998 191.806 691.932 210.04 702.507 228.588C707.608 237.535 712.707 246.624 717.07 255.96C732.439 288.851 742.187 324.224 745.193 360.428C747.7 390.624 744.526 420.479 737.712 449.91C734.018 465.864 729.301 481.853 722.855 496.93C709.968 527.069 691.519 555.526 670.369 580.493C654.66 599.038 637.021 615.457 618.075 630.64C595.394 648.818 571.839 664.355 545.927 677.574C537.203 682.026 528.409 686.485 519.327 690.173C498.434 698.656 476.977 704.345 455.336 710.477L433.093 717.61C420.246 721.463 407.572 723.779 394.218 724.88L390.75 725.122C377.859 725.74 363.909 724.281 351.381 721.306C340.224 718.656 329.519 714.875 318.523 711.742L279.597 701.127C265.154 696.425 251.128 690.677 237.262 684.504C223.427 678.345 209.691 671.745 196.684 663.96C184.358 656.582 172.544 648.322 161.134 639.606C153.35 633.66 145.597 627.648 138.375 621.021C127.257 610.817 115.86 600.114 105.803 588.867C79.3255 559.257 57.6076 525.083 42.7898 488.222C37.6651 475.474 33.2016 462.61 29.9967 449.232C25.4244 430.146 23.0631 410.58 22.2546 390.989C19.2975 319.336 47.9263 249.006 89.7477 191.966C100.399 177.439 112.163 163.923 124.374 150.696C157.852 114.43 197.656 83.9511 242.367 62.7988C251.431 58.5108 260.906 54.9024 270.297 51.4002C280.367 47.6444 290.357 44.0381 300.76 41.2835C325.143 34.8272 349.938 31.5413 375.11 30.5437Z"/>
	<path fill="#F5F3F6" transform="scale(0.666667 0.666667)" d="M663.372 432.17C662.967 432.974 662.611 433.575 661.995 434.239C661.261 435.032 660.86 434.837 659.812 434.881L659.131 434.25C659.177 433.523 659.154 432.739 659.502 432.082C659.749 431.616 660.462 431.526 660.931 431.351C661.77 431.73 662.458 431.995 663.372 432.17Z"/>
	<path fill="#F5F3F6" transform="scale(0.666667 0.666667)" d="M647.969 410.52C648.435 408.899 648.522 408.261 650.062 407.36C650.514 407.095 651.07 406.947 651.562 406.789L652.038 407.25C651.98 408.434 651.885 409.023 651.319 410.062L651.831 410.506C652.338 410.954 652.578 411.3 652.829 411.938L652.5 412.199C650.968 411.322 651.073 409.242 648.877 409.923L648.595 410.052L647.969 410.52Z"/>
	<path fill="white" transform="scale(0.666667 0.666667)" d="M664.243 428.258L665.298 427.8C664.729 429.32 664.177 430.752 663.372 432.17C662.458 431.995 661.77 431.73 660.931 431.351L661.137 431.149L661.086 430.688C660.435 430.542 660.003 430.38 659.438 430.026L659.438 429.439L661.312 429.327C662.256 429.269 662.941 429.266 663.727 428.672L664.243 428.258Z"/>
	<path fill="white" transform="scale(0.666667 0.666667)" d="M647.969 410.52L648.595 410.052L648.854 410.542C649.847 412.39 650.346 413.172 652.357 413.812C652.27 415.021 651.073 415.186 650.584 416.267C649.9 416.162 649.227 415.925 648.562 415.733C647.411 414.165 647.769 412.377 647.969 410.52Z"/>
	<path fill="white" transform="scale(0.666667 0.666667)" d="M207.072 327.198L212.843 327.693L211.063 331.357L209.942 332.939L209.438 332.91C208.355 331.054 207.724 329.232 207.072 327.198Z"/>
	<path fill="#F5F3F6" transform="scale(0.666667 0.666667)" d="M658.717 418.908L659.162 418.146C660.412 419.955 661.126 421.668 660.691 423.938C660.599 424.42 660.537 424.492 660.346 424.875L661.125 425.279C661.721 424.896 662.081 424.588 662.574 424.072C663.61 422.985 665.47 422.393 666.84 421.805C666.38 423.714 666.078 426.028 665.298 427.8L664.243 428.258C662.994 427.692 662.188 427.387 660.814 427.813L660.188 428.018L659.438 427.417C659.676 426.381 659.948 425.467 659.576 424.435C658.961 422.732 659.022 420.712 658.717 418.908Z"/>
	<path fill="white" transform="scale(0.666667 0.666667)" d="M662.663 415.312C663.925 415.007 666.029 415.035 667.136 415.688C667.67 416.831 667.804 417.423 667.513 418.688C667.153 420.25 666.2 421.04 664.921 421.882L662.625 422.846C661.716 421.377 661.234 419.227 660.799 417.562C661.207 416.417 661.736 416.015 662.663 415.312Z"/>
	<path fill="white" transform="scale(0.666667 0.666667)" d="M651.012 428.224C648.934 424.56 647.348 421.074 647.757 416.812L648.259 416.438C648.907 417.043 649.142 417.489 649.462 418.312L651.294 419.194C652.075 419.565 652.359 419.918 652.899 420.562L652.688 421.2L651.826 421.617L650.421 422.062C650.589 422.887 651.735 424.105 652.5 424.512L653.223 424.741L653.644 424.125L652.861 422.625L653.164 421.688L653.625 421.688L653.753 422.081C654.266 423.483 655.099 424.352 656.122 425.387C654.615 426.384 652.752 428.091 651.012 428.224Z"/>
	<path fill="white" transform="scale(0.666667 0.666667)" d="M105.771 263.062L106.541 263.091C107.248 264.319 107.792 265.558 108.097 266.95C108.721 269.786 108.778 272.831 109.276 275.718C109.872 279.173 111.976 284.209 111.562 287.549C110.385 285.683 109.495 283.659 108.644 281.627C106.815 277.256 105.595 272.189 105.369 267.46C105.294 265.899 105.168 264.533 105.771 263.062Z"/>
	<path fill="white" transform="scale(0.666667 0.666667)" d="M533.341 324.562L533.958 324.633C534.848 328.368 535.591 331.833 537.403 335.269C539.25 338.771 541.59 342.22 544.052 345.314C545.264 346.837 549.563 350.698 549.934 352.312C543.146 346.469 536.014 340.259 533.108 331.512C532.289 329.049 532.138 326.903 533.341 324.562Z"/>
	<path fill="#F5F3F6" transform="scale(0.666667 0.666667)" d="M656.121 415.494L656.103 414.844C655.981 412.817 653.891 411.361 653.088 409.582C652.721 408.769 652.767 407.752 652.761 406.875C653.597 406.153 655.357 406.026 656.447 405.937C659.291 405.706 661.677 407.001 663.801 408.68L665.126 409.688L665.167 410.812L664.5 411.314L663.375 410.603C661.4 411.757 662.06 413.951 659.25 413.922C657.705 411.92 658.281 407.846 656.438 406.401C655.759 407.295 656.006 407.685 656.15 408.75C656.445 410.921 656.772 413.32 658.076 415.134L656.121 415.494Z"/>
	<path fill="white" transform="scale(0.666667 0.666667)" d="M650.584 416.267C651.779 416.321 652.946 415.259 653.905 414.597L655.506 420.188L656.145 420.562C656.335 419.342 656.197 417.412 655.623 416.304C655.249 415.584 655.516 416.389 655.254 415.336L656.121 415.494L658.076 415.134L659.996 415.558C660.063 416.099 660.084 415.745 659.727 416.411C659.391 417.038 659.273 417.459 659.162 418.146L658.717 418.908L657.955 419.076C657.984 420.765 657.937 422.498 658.309 424.152L658.508 425.062C658.688 426.402 658.158 426.897 657.453 427.955L657.675 428.631C658.006 429.431 657.9 428.723 658.123 429.75C658.361 430.846 658.142 433.128 657.578 434.077C656.201 433.573 654.342 430.498 653.427 429.311C653.877 428.83 654.272 428.417 654.813 428.037C655.947 427.242 656.403 426.707 656.965 425.438C656.818 424.074 656.177 423.529 655.243 422.563C654.648 421.947 654.814 421.212 654.766 420.375C653.907 418.903 653.481 418.187 651.891 417.482C651.024 417.098 651.089 417.013 650.584 416.267Z"/>
	<path fill="white" transform="scale(0.666667 0.666667)" d="M655.247 233.812C655.857 234.094 656.004 233.987 656.244 234.664C656.866 236.419 656.586 239.145 656.282 240.962C655.106 247.999 652.263 255.155 648.938 261.426L648.363 262.135C647.827 261.527 648.071 261.302 648.22 260.559C648.966 256.852 650.284 253.259 651.042 249.544C651.949 245.098 651.845 240.477 651.895 235.958C652.97 235.035 653.962 234.409 655.247 233.812Z"/>
	<path fill="#F5F3F6" transform="scale(0.666667 0.666667)" d="M649.789 403.416C654.187 401.9 659.271 401.457 663.554 403.573C665.494 404.531 668.497 406.387 670.099 407.799C670.234 415.208 670.464 422.327 668.112 429.453C667.435 431.504 666.672 433.674 665.148 435.266C663.894 436.576 662.227 437.952 660.562 438.678C657.894 438.634 656.231 437.597 654.384 435.712C651.228 432.491 646.379 424.861 646.658 420.188L646.754 419.627L646.927 420.268C647.567 422.59 648.868 426.982 651.012 428.224C652.167 431.225 655.853 434.28 658.687 435.663C659.747 436.18 660.684 436.224 661.818 435.938C665.301 432.119 666.332 428.103 667.739 423.303C668.488 420.752 669.148 418.798 669.017 416.087C668.904 413.735 668.927 410.265 666.938 408.632L665.974 408.188C664.606 407.432 663.465 406.377 662.029 405.669C659.171 404.258 655.91 404.374 652.831 404.931C650.241 405.398 648.343 406.721 646.8 408.863L646.723 418.5C646.053 416.732 646.195 414.776 646.146 412.905C646.084 410.536 645.924 408.122 646.129 405.759C647.324 404.933 648.494 404.081 649.789 403.416Z"/>
	<path fill="white" transform="scale(0.666667 0.666667)" d="M383.44 539.404C395.722 538.87 409.777 541.612 421.155 546.372C420.309 549.934 418.972 554.37 416.812 557.323L415.302 556.841L401.598 552.785C403.021 551.018 405.462 549.364 405.83 547.008C405.976 546.076 405.985 545.632 405.363 544.899C404.222 543.555 401.571 543.144 399.916 542.724C393.264 541.036 387.105 540.355 380.269 540.211L380.438 539.818L383.44 539.404Z"/>
	<path fill="white" transform="scale(0.666667 0.666667)" d="M309.112 660.185C314.801 665.998 323.069 670.956 331.385 671.423L331.906 671.445L344.063 690.754L342.297 690.279C337.099 688.755 331.022 686.89 326.438 683.916C318.43 678.721 313.528 668.287 309.112 660.185Z"/>
	<path fill="white" transform="scale(0.666667 0.666667)" d="M540.713 233.656C543.973 233.408 546.947 235.482 549.708 237.001C550.031 242.276 548.829 246.93 547.133 251.856C546.441 253.864 545.153 257.745 546.107 259.688L546.938 259.588C548.498 258.171 549.267 254.709 550.112 252.703C550.665 255.641 550.584 258.808 550.704 261.797C550.592 263.396 550.859 265.226 549.756 266.413L548.884 266.095C547.743 265.492 546.68 264.263 545.731 263.362C541.418 259.267 538.399 254.539 536.23 249C535.395 246.867 533.199 239.648 534.321 237.562C535.559 235.262 538.401 234.428 540.713 233.656Z"/>
	<path fill="#030303" transform="scale(0.666667 0.666667)" d="M536.87 237.835L542.625 237.748C544.76 237.869 546.363 238.241 547.82 239.812C547.972 243.237 545.763 246.2 543.765 248.812L542.748 248.812C541.779 247.803 541.352 247.606 541.156 246.188C543.002 244.589 543.822 243.712 544.327 241.312C542.092 238.209 537.689 241.208 534.81 239.625C535.025 238.691 536.076 238.342 536.87 237.835Z"/>
	<path fill="white" transform="scale(0.666667 0.666667)" d="M370.329 544.285C380.164 544.037 388.955 544.82 398.468 547.529L392.586 552.373C391.994 552.936 391.807 552.719 390.987 552.684C384.665 552.416 378.591 552.554 372.287 553.174C365.048 553.991 358.243 555.552 351.25 557.548C350.292 554.149 349.205 550.862 347.246 547.891L347.007 547.539C354.803 546.084 362.384 544.64 370.329 544.285Z"/>
	<path fill="white" transform="scale(0.666667 0.666667)" d="M303.184 588.562C303.624 588.637 304.031 588.705 304.448 588.872C305.47 589.283 306.62 589.774 307.101 590.812C306.595 591.528 306.106 592.238 305.838 593.083C304.015 598.842 308.164 607.166 310.758 612.144C305.431 618.544 302.47 626.783 300.554 634.775L300.299 635.812C299.621 635.607 298.342 632.944 297.864 632.208C296.674 630.376 295.379 628.812 293.813 627.29C293.337 626.826 293.338 627.018 293.291 626.527C292.612 619.464 298.759 594.009 303.184 588.562Z"/>
	<path fill="white" transform="scale(0.666667 0.666667)" d="M339.128 549.066C341.272 552.097 342.957 555.771 344.662 559.074C341.007 561.071 337.253 562.814 333.75 565.087C325.005 570.761 317.766 577.797 309.938 584.568L309.608 584.718C307.965 584.804 305.615 583.096 304.16 582.309C312.865 568.446 324.178 556.284 339.128 549.066Z"/>
	<path fill="white" transform="scale(0.666667 0.666667)" d="M474.867 656.062L475.232 656.484C475.199 657.26 475.134 657.986 474.981 658.749C472.387 671.698 464.48 685.413 454.941 694.545C451.73 697.619 448.17 700.106 444.478 702.562L443.956 702.375L443.728 700.967C443.491 696.966 443.031 692.827 440.853 689.359L440.639 689.027C449.114 681.969 458.368 671.298 461.167 660.448L466.125 660.433C469.176 660.306 472.589 658.674 474.579 656.4L474.867 656.062Z"/>
	<path fill="white" transform="scale(0.666667 0.666667)" d="M430.78 547.896C445.337 556.354 457.534 568.276 464.851 583.567C462.352 585.387 459.936 587.258 457.967 589.658L457.605 590.103C447.801 577.753 436.532 569.218 423.288 560.872L430.78 547.896Z"/>
	<path fill="white" transform="scale(0.666667 0.666667)" d="M378.999 555.54C389.314 555.239 398.598 557.014 408.561 559.322C403.765 566.637 399.616 574.556 396.386 582.678C391.238 581.338 386.307 580.507 381.013 580.117C376.79 580.051 373 580.163 368.94 581.438L368.225 581.666C365.192 572.194 357.321 566.567 349.453 561.211C359.038 557.696 368.857 556.192 378.999 555.54Z"/>
	<path fill="white" transform="scale(0.666667 0.666667)" d="M78.0062 476.124C81.4669 478.133 84.8579 479.384 88.7975 480.044C89.6307 481.595 89.7877 483.904 90.1075 485.669L92.3868 499.478L95.2704 514.122L103.399 548.344C106.053 558.876 108.804 569.276 113.342 579.188C114.503 581.723 115.836 584.225 117.261 586.623C118.25 588.288 121.278 591.673 121.312 593.413L101.333 569.374C99.6271 567.223 97.0285 564.734 95.8703 562.307C94.9775 560.436 94.5602 558.141 94.0413 556.14L91.0674 544.021L84.0177 512.625L78.0062 476.124Z"/>
	<path fill="white" transform="scale(0.666667 0.666667)" d="M291.972 639.151C295.063 640.967 297.757 643.478 301.086 644.835L301.534 645.012L301.539 651.173C301.981 656.021 304.051 661.563 306.009 666C308.989 672.755 313.055 679.213 318.932 683.812C324.494 688.166 331.657 690.844 338.247 693.188L354.822 698.647C357.467 699.383 360.112 699.901 362.81 700.401C363.483 700.526 365.463 700.666 365.918 700.978C366.686 701.503 367.956 703.774 368.558 704.602C372.796 710.435 377.529 714.313 383.025 718.825C368.645 718.931 352.722 716.313 339.772 709.925C337.264 708.688 334.438 707.344 332.239 705.601C331.067 704.672 330.384 703.362 329.527 702.168C327.999 700.039 326.401 697.947 324.603 696.036L314.812 686.153C302.644 672.638 294.606 657.202 291.972 639.151Z"/>
	<path fill="white" transform="scale(0.666667 0.666667)" d="M154.537 182.785C160.52 182.562 166.976 182.902 172.739 184.624C180.508 186.945 187.745 191.88 194.356 196.445C182.977 200.528 167.565 199.788 155.812 197.223C150.752 196.118 145.555 194.346 140.296 194.708L154.001 202.041C154.533 202.456 155.803 202.771 156.455 203.022C160.518 204.584 164.603 205.46 168.836 206.382C158.593 207.199 146.743 207.876 136.777 205.063C129.305 202.954 121.936 198.452 115.904 193.643C126.481 185.853 141.742 183.551 154.537 182.785Z"/>
	<path fill="white" transform="scale(0.666667 0.666667)" d="M469.275 589.465C471.015 592.543 472.006 596.436 473.112 599.788C475.042 605.636 476.905 611.475 477.995 617.547C479.598 626.478 479.765 635.406 479.674 644.45C474.045 646.698 469.02 650.467 463.593 653.249C462.84 653.591 462.964 653.697 462.112 653.438C461.749 650.642 461.653 647.733 461.112 644.977C460.047 639.557 458.066 633.889 455.837 628.846C455.293 627.615 453.186 624.711 453.103 623.639C453.08 623.336 453.676 622.138 453.8 621.814C454.67 619.531 455.623 617.295 456.343 614.957C458.435 608.165 459.502 601.826 459.614 594.743C463.496 593.537 466.084 591.955 469.275 589.465Z"/>
	<path fill="white" transform="scale(0.666667 0.666667)" d="M405.625 684.157L416.071 687.65C423.155 689.717 429.949 690.611 437.286 690.727C436.549 695.789 433.576 701.174 433.787 706.125C434.179 706.756 434.417 707.062 434.509 707.813C425.69 711.888 416.667 714.497 407.189 716.524L395.783 718.327C386.663 714.819 380.114 708.195 374.97 700.084C386.113 695.187 397.19 694.01 405.625 684.157Z"/>
	<path fill="white" transform="scale(0.666667 0.666667)" d="M343.023 563.438L344.438 563.125L364.207 583.084C356.601 590.991 348.854 599.992 344.337 610.073C338.932 609.342 333.509 610.303 328.145 610.985L316.394 612.481C314.984 605.751 310.565 599.963 308.675 593.373C311.896 588.662 316.145 584.377 320.274 580.459C327.128 573.955 334.626 567.844 343.023 563.438Z"/>
	<path fill="white" transform="scale(0.666667 0.666667)" d="M342.243 614.381L343.409 614.373C344.23 616.57 344.661 618.929 345.461 621.161C347.528 626.924 350.061 632.214 353.146 637.485C351.33 640.727 349.011 643.809 346.902 646.875L331.968 667.924C328.368 667.158 325.212 665.239 322.116 663.332C318.063 660.807 314.006 658.001 310.489 654.763C309.181 653.56 307.744 652.216 307.004 650.574C306.285 648.976 306.472 646.702 306.451 644.964C306.419 642.314 306.249 639.484 306.634 636.86C307.677 629.734 310.521 622.733 313.114 616.044L314.812 616.259C318.289 616.707 321.905 616.191 325.392 615.951L342.243 614.381Z"/>
	<path fill="white" transform="scale(0.666667 0.666667)" d="M684.508 468.188L685.037 468.562C686.422 492.755 685.861 517.516 681.031 541.312C679.829 547.24 678.744 553.368 676.04 558.824C676.165 555.718 677.413 552.151 678.062 549.085L681.092 533.019C683.886 517.164 684.312 499.987 683.422 483.925L671.654 547.965L668.908 560.007C668.246 562.592 666.932 566.064 667.057 568.686L667.118 569.25C667.15 571.049 664.271 573.847 663.134 575.27C656.116 584.057 648.354 591.954 640.416 599.897C641.139 596.465 643.146 592.845 644.337 589.5L649.59 572.557L666.341 502.282C668.1 492.884 670.054 483.262 670.702 473.723L684.508 468.188Z"/>
	<path fill="white" transform="scale(0.666667 0.666667)" d="M413.377 561.188C425.098 565.884 434.258 572.461 443.533 580.916C448.024 585.01 452.376 589.195 456.132 593.99L449.085 622.094L445.875 620.273C439.847 617.074 433.571 614.454 427.072 612.369C425.451 611.849 423.884 611.445 422.195 611.207C421.883 611.163 420.222 611.047 420.062 610.933C419.832 610.77 419.173 608.573 419.047 608.233C418.325 606.291 417.302 604.45 416.172 602.716C411.888 596.145 406.652 590.703 400.814 585.514L413.377 561.188Z"/>
	<path fill="white" transform="scale(0.666667 0.666667)" d="M199.695 307.212L200.653 325.5C200.757 326.536 200.714 328.788 201.105 329.694C201.437 330.464 202.656 331.612 203.196 332.339C204.393 333.95 205.144 335.765 205.835 337.636C204.466 340.446 201.968 342.907 199.831 345.139C193.93 351.306 187.339 356.783 180.919 362.398L160.055 380.801L155.423 361.234C154.481 363.499 156.358 373.173 156.602 376.028C156.826 378.646 156.796 381.265 156.766 383.889L151.294 379.802L143.566 373.243C140.488 370.585 137.272 367.914 134.547 364.89C134.184 364.487 133.244 363.61 133.043 363.148C132.966 362.972 133.328 361.305 133.368 361.044L134.343 353.914C135.11 347.038 135.46 340.213 134.953 333.314C137.922 336.83 141.366 339.915 145.373 342.2C151.86 345.897 158.488 347.45 165.804 345.44C178.715 341.893 184.753 332.684 191.187 321.76L199.695 307.212Z"/>
	<path fill="white" transform="scale(0.666667 0.666667)" d="M357.622 638.926C365.289 641.847 373.479 643.422 381.553 644.674C386.647 645.464 391.741 646.287 396.889 646.62C397.676 657.953 401.017 668.715 404.196 679.559C396.558 685.502 387.841 690.199 379.203 694.511L372.587 697.833C372.336 697.945 371.095 698.603 370.84 698.59C369.921 698.545 368.265 697.563 367.398 697.157C365.107 696.086 362.832 695.054 360.454 694.19C356.951 692.917 353.266 692.25 349.66 691.323C344.896 684.606 340.941 676.963 337.273 669.604L348.749 654.482C352.19 649.562 354.979 644.301 357.622 638.926Z"/>
	<path fill="white" transform="scale(0.666667 0.666667)" d="M420.568 615.149L449.894 626.436L453.486 640.77C454.853 645.571 456.572 650.718 456.738 655.735C457.018 664.219 442.317 680.91 436.397 687.292L411.361 681.034C410.79 680.88 407.766 680.338 407.421 680.006C407.365 679.953 407.31 672.774 407.243 672.034C406.823 667.356 405.431 662.325 404.268 657.782C403.191 653.575 402.219 648.821 399.777 645.182L399.502 644.782C407.212 635.939 415.838 625.953 420.568 615.149Z"/>
	<path fill="white" transform="scale(0.666667 0.666667)" d="M369.315 585.205C375.604 584.673 382.104 585.158 388.388 585.625C391.014 585.819 394.354 585.886 396.808 586.857C399.373 587.87 401.697 591.049 403.391 593.159C408.375 599.363 413.798 606.435 417.205 613.635L396.355 642.562L395.144 642.678C382.688 640.089 370.457 636.353 357.675 635.59L346.658 613.044L365.803 586.312C366.847 585.078 367.815 585.298 369.315 585.205Z"/>
	<path fill="white" transform="scale(0.666667 0.666667)" d="M426.632 304.156L420.07 360.056C419.845 360.887 389.549 382.032 386.385 384.045L348.62 360.626C347.893 360.03 347.793 357.297 347.656 356.319L346.173 345.707L342.021 304.599C344.702 308.734 347.218 313.273 350.227 317.153C353.865 321.845 358.83 325.441 363.059 329.567C364.996 331.457 366.526 333.807 368.731 335.396C371.574 337.444 374.937 339.131 378.31 340.085L378.938 340.259C381.095 340.901 384.374 341.302 386.573 340.779L387.106 340.637C389.384 340.496 391.13 340.586 393.436 339.966C395.6 339.384 397.637 338.226 399.42 336.875C402.358 334.647 404.772 331.319 407.404 328.705C411.057 325.075 415.111 322.167 418.241 317.978C421.424 313.717 423.978 308.764 426.632 304.156Z"/>
	<path fill="white" transform="scale(0.666667 0.666667)" d="M113.119 197.655C116.25 199.68 119.121 202.069 122.293 204.052C130.246 209.021 139.342 211.775 148.683 212.391C163.994 213.4 183.852 210.612 195.665 200.139L196.03 199.811C202.369 213.321 207.376 229.863 205.254 244.886C204.294 251.677 202.093 258.131 200.765 264.821C199.927 269.043 200.199 273.723 200.393 278.013C200.456 279.406 200.252 281.119 201.034 282.286L201.938 282.316C202.238 282.148 202.615 282.074 202.839 281.812C203.734 280.767 203.866 277.349 204.028 276C204.562 271.559 204.784 266.975 206.541 262.811C209.185 262.478 212.23 261.467 214.888 261.851C216.483 262.082 217.679 262.717 218.561 264.101C219.984 266.334 219.904 269.371 219.391 271.875C218.006 278.648 212.859 286.479 207.026 290.173C206.453 290.535 206.742 290.471 206.062 290.318C206.001 289.628 205.964 288.979 205.733 288.321C205.371 287.29 205.308 287.289 204.375 286.824L203.062 287.308C202.043 288.662 202.451 290.524 202.556 292.117C195.352 299.11 190.812 307.954 185.872 316.582C180.533 325.908 175.725 334.308 165.345 338.662C163.379 339.487 158.709 341.366 156.736 340.505C147.161 336.327 140.552 330.256 133.713 322.51C131.245 319.715 128.609 316.891 126.558 313.772C124.453 310.571 123.252 306.981 121.836 303.451C120.715 300.659 119.282 297.976 118.285 295.139C116.75 290.774 115.813 286.06 114.78 281.55C114.075 278.474 112.758 274.049 113.435 270.921L113.632 270C113.641 268.316 112.227 269.486 111.72 268.481C111.158 267.366 111.576 264.551 111.612 263.243C111.68 260.75 111.605 258.333 111.379 255.849C110.805 249.543 109.501 243.414 108.569 237.167C107.277 228.512 106.855 219.705 108.67 211.092C109.639 206.494 111.378 202.005 113.119 197.655Z"/>
	<path fill="#242424" transform="scale(0.666667 0.666667)" d="M164.223 293.99C165.062 294.865 166.085 295.759 166.625 296.847C164.372 297.522 162.45 298.932 160.312 299.885C159.135 300.409 158.342 300.617 157.139 300.188L156.715 298.875C156.712 298.844 156.775 297.974 156.878 297.881C157.022 297.751 158.06 297.434 158.313 297.336C159.886 296.728 162.846 295.862 163.868 294.515L164.223 293.99Z"/>
	<path fill="#030303" transform="scale(0.666667 0.666667)" d="M209.234 265.688C211.263 265.276 212.735 266.831 214.664 266.516C215.364 266.401 215.842 266.378 216.562 266.48L216.654 267.317L215.812 267.733C214.6 267.353 213.891 267.314 212.625 267.431C212.504 267.662 212.259 267.864 212.262 268.125C212.272 268.893 212.887 270.285 213.083 271.091C213.848 274.227 213.368 277.203 212.368 280.201C211.604 282.265 210.574 283.798 209.251 285.524C209.321 281.787 210.922 277.424 210.342 273.872C209.919 271.286 207.517 268.744 207.938 266.278L209.234 265.688Z"/>
	<path fill="#030303" transform="scale(0.666667 0.666667)" d="M145.681 315.562C148.91 314.661 149.09 316.964 151.246 318.604C152.235 319.357 153.686 319.939 154.897 320.204C156.66 320.59 157.759 320.102 159.188 319.099L159.154 318.607C156.831 317.845 153.226 318.231 151.236 317.062L151.482 316.125C153.711 314.796 157.377 315.682 159.846 316.068C161.821 316.58 163.903 316.55 165.934 316.638L165.066 318.375C164.289 319.913 163.083 321.215 161.676 322.216C159.432 323.814 156.66 324.057 154.008 323.489C151.464 322.944 147.462 321.196 146.022 318.892C145.302 317.74 145.443 316.81 145.681 315.562Z"/>
	<path fill="#030303" transform="scale(0.666667 0.666667)" d="M172.88 245.394C175.462 244.965 178.98 244.977 181.395 246.072C183.555 247.051 187.082 249.698 187.479 252.225C187.705 253.669 186.7 255.599 185.821 256.688C185.702 254.856 185.506 254.242 184.213 252.957C180.971 249.736 176.623 249.213 172.297 249.357C169.619 249.446 167.062 249.609 165.132 251.678L165.41 252.311C167.541 253.396 169.299 254.867 171.147 256.365C170.391 254.863 169.217 253.499 168.215 252.149C172.687 251.405 177.254 251.771 181.178 254.193L181.608 254.464L183.995 257.815C183.047 258.031 180.666 258.895 179.824 258.762C177.642 258.416 174.886 257.001 172.653 256.362C171.796 257.676 170.979 259.072 169.962 260.267C167.303 257.388 165.462 256.373 161.824 255.04C163.561 257.569 164.578 259.826 165.499 262.724C163.428 261.787 159.322 260.122 158.338 258C158.381 256.713 158.51 255.479 157.975 254.279C157.463 253.131 156.695 251.905 157.053 250.688C158.41 250.35 160.335 251.038 161.4 250.702C161.767 250.586 161.917 250.131 162.179 249.849C163.18 248.77 164.265 247.542 165.6 246.871C167.692 245.82 170.568 245.665 172.88 245.394Z"/>
	<path fill="#030303" transform="scale(0.666667 0.666667)" d="M164.223 293.99L164.661 292.903C165.896 292.531 166.407 292.915 167.544 293.535C169.294 294.49 171.834 296.426 172.327 298.419L172.461 299.062C171.064 300.516 169.113 301.408 167.396 302.441L160.863 306.762C158.844 308.213 157.194 310.073 155.219 311.532C154.513 312.054 153.852 312.191 153 312.307C151.645 310.911 152.745 309.484 151.149 307.967C148.754 305.691 144.649 305.419 141.792 303.693C139.133 302.086 136.956 299.008 134.625 296.908C136.332 293.07 138.873 289.339 139.949 285.29C141.41 279.792 139.262 272.843 138.794 267.238C138.437 262.966 138.687 258.546 139.215 254.295C137.387 256.297 135.609 258.42 133.424 260.041C132.062 259.068 130.048 257.186 128.513 256.646C127.77 256.384 126.343 256.53 125.506 256.448C123.135 256.216 121.413 258.328 119.266 257.966C118.675 256.965 118.293 256.683 118.688 255.501C119.175 254.038 121.525 252.161 122.942 251.675C124.926 250.995 131.028 251.496 132.844 252.555L133.104 252.75C132.603 254.307 130.964 253.901 131.287 255.75L132.188 256.635C133.366 255.855 133.529 254.459 134.438 253.443C135.249 252.535 136.404 251.777 137.388 251.062C137.168 250.328 137.049 250.414 136.374 250.064C132.919 248.273 125.41 247.573 121.716 248.875C120.084 249.45 117.759 251.062 116.062 250.629C115.391 249.62 115.496 249.647 115.713 248.438C117.384 246.335 120.197 244.859 122.866 244.53C126.771 244.048 134.932 244.693 137.964 247.254L143.691 253.436L143.52 253.87C140.788 260.961 141.832 269.316 142.813 276.685C143.045 278.426 143.119 280.646 143.624 282.286C143.934 283.294 145.558 284.483 146.29 285.253C147.605 286.635 149.033 289.514 150.75 290.291C151.797 290.765 152.747 290.63 153.722 290.062C155.559 288.994 156.697 287.404 157.149 285.375C156.524 283.428 154.798 283.428 154.994 281.365C156.276 280.486 156.382 280.554 157.854 280.611C159.181 281.526 160.112 282.366 160.464 284.019C160.935 286.231 160.495 288.254 159.253 290.137C158.352 291.504 156.511 293.733 154.79 294.059C152.542 294.484 149.758 293.847 147.955 292.475C146.063 291.035 144.539 288.693 143.223 286.732C141.866 289.455 139.231 293.358 138.775 296.25L139.312 296.859C141.79 296.643 144.541 294.355 146.812 295.814C147.177 296.048 147.48 296.485 147.742 296.812L147.562 297.614C145.55 298.822 142.857 298.635 141.12 300.009C141.886 301.139 143.339 301.363 144.644 301.604C146.601 301.966 148.641 302.156 150.567 302.636C151.843 302.953 155.117 304.567 156.238 304.352C157.852 304.041 159.937 303.047 161.344 302.184C163.434 300.903 165.326 299.324 167.57 298.313C167.282 297.759 166.997 297.341 166.625 296.847C166.085 295.759 165.062 294.865 164.223 293.99Z"/>
	<path fill="white" transform="scale(0.666667 0.666667)" d="M590.657 281.204L590.062 280.299C591.253 278.859 593.107 278.604 594.879 278.447C599.232 278.06 603.826 278.629 608.213 278.678C613.088 278.733 618.054 278.201 622.899 278.798L623.055 279.432C623.903 282.814 626.388 284.331 628.081 287.348C628.558 283.936 628.97 280.232 628.312 276.827C626.953 275.111 624.213 274.851 622.143 274.615C618.173 274.161 614.262 274.814 610.304 274.82C603.11 274.83 591.489 272.219 585.47 276.938C584.343 277.821 583.813 278.577 583.453 279.938L583.336 280.343C582.592 283.191 583.163 286.68 583.406 289.581C583.806 294.37 582.934 300.418 579.938 304.244C578.793 304.24 577.918 303.435 577.098 302.643C574.703 300.328 574.425 296.934 574.615 293.822C574.816 290.52 575.084 288.25 574.524 284.947C572.598 273.58 564.713 262.884 559.906 252.534C559.689 252.066 559.763 252.229 559.385 251.705C560.407 256.522 561.158 261.507 562.489 266.237C563.733 270.657 566.004 274.637 567.544 278.936C569.278 283.776 569.323 288.765 569.763 293.815C569.864 294.97 570.656 297.61 570.353 298.616C567.773 295.297 565.53 291.669 563.232 288.15C561.981 286.234 560.587 283.501 558.562 282.378L557.66 282.441C556.896 283.53 556.933 289.304 557.274 290.729C557.507 291.706 558.534 292.911 559.107 293.778C561.787 297.831 564.972 301.384 568.521 304.697C576.422 312.072 585.781 318.588 594.703 324.666C598.357 327.154 602.566 330.33 606.664 331.977L607.65 332.301L617.592 323.898C617.605 327.372 617.787 331.002 617.418 334.455C616.879 339.502 615.147 344.261 613.154 348.89C611.064 353.746 609.081 357.942 608.04 363.183C615.494 356.335 619.934 348.839 622.667 339.214C624.762 343.8 628.359 350.028 626.611 355.131C625.82 357.442 624.22 359.471 622.78 361.411C617.835 368.072 612.147 373.393 605.725 378.575C604.463 379.594 602.882 381.263 601.422 381.926C600.942 382.144 600.198 381.623 599.749 381.408C596.159 379.688 592.805 377.187 589.402 375.111C583.221 371.341 576.575 367.814 570.83 363.401L573.026 359.813C560.871 353.069 543.747 342.946 539.797 328.68C539.243 326.678 539.135 324.731 539.078 322.664L541.713 320.567C545.304 317.727 546.552 313.659 548.14 309.522C550.425 303.565 552.386 297.735 553.13 291.375C553.948 284.382 552.34 277.03 551.77 270.019C553.175 269.3 554.462 268.66 555.625 267.562C557.626 260.517 550.581 240.644 552.832 239.488C553.529 239.13 554.42 239.2 555.188 239.179C555.729 238.041 555.652 236.816 555.154 235.621C554.043 232.955 550.245 230.606 547.773 229.473C547.407 222.849 545.757 216.039 546.491 209.432C546.972 205.104 548.647 200.941 550.349 196.968C551.875 193.408 553.646 189.483 556.233 186.551C559.643 182.686 563.601 181.52 568.62 181.284C573.824 181.039 578.99 182 584.125 182.67C590.97 183.564 597.825 184.286 604.738 184.163C610.23 184.066 615.687 183.146 621.12 182.409C622.343 182.243 625.648 181.409 626.695 181.662C627.867 181.944 630.333 184.303 631.278 185.174C640.781 193.929 645.982 207.795 646.469 220.556L646.524 235.037C646.52 238.588 646.695 242.286 646.332 245.818C645.707 251.885 643.505 257.627 642.139 263.534L638.866 279.72C638.07 283.911 637.36 288.38 635.426 292.223C633.884 295.285 631.551 298.045 629.419 300.721L619.279 312.703C615.569 316.674 611.464 320.41 608.193 324.761L598.142 315.288C594.935 312.217 591.24 308.674 589.502 304.5C588.143 301.236 588.042 297.195 587.794 293.684C587.588 290.758 587.212 287.804 587.175 284.871C587.165 284.119 587.259 283.497 587.438 282.771C588.226 282.703 587.912 282.671 588.384 282.748L588.586 282.142L589.125 281.816C589.857 281.188 589.664 281.31 590.657 281.204Z"/>
	<path fill="#030303" transform="scale(0.666667 0.666667)" d="M628.514 234.938L628.927 234.779C633.42 233.527 638.461 236.056 642.442 237.829C640.4 237.848 638.483 237.675 636.463 237.414C635.717 237.352 633.667 236.952 633.023 237.126C631.408 237.564 630.963 239.528 628.875 239.669C627.584 239.178 627.08 238.456 626.26 237.375C626.505 236.279 627.679 235.611 628.514 234.938Z"/>
	<path fill="#030303" transform="scale(0.666667 0.666667)" d="M580.357 235.974C583.376 236.142 585.528 236.894 587.812 238.909C588.754 239.74 588.717 240.289 588.812 241.5L588.027 242.345C586.652 242.804 585.865 243.045 584.438 242.704L582.475 239.451C581.436 240.145 578.598 242.151 577.312 241.435C576.652 241.067 576.652 240.485 575.812 240.393C575.463 241.872 575.999 243.258 576.383 244.688C576.463 245.42 576.413 245.859 576.196 246.562C575.559 246.544 575.202 246.456 574.626 246.146C572.638 245.077 569.692 240.277 569.137 238.125C569.6 237.373 569.711 237.198 570.609 236.927C571.814 236.562 574.94 236.028 575.987 236.625C575.715 237.748 575.726 238.663 575.799 239.812L576.22 239.944L576.985 238.597C578.058 236.815 578.413 236.481 580.357 235.974Z"/>
	<path fill="#030303" transform="scale(0.666667 0.666667)" d="M574.6 227.316C579.271 227.028 585.286 228.587 589.742 229.981C591.845 230.639 596.094 231.8 597.161 233.812C595.362 234.543 593.114 234.408 591.188 234.497C591.361 235.939 591.719 236.973 591.086 238.312C590.085 238.672 588.8 238.682 587.812 238.203C586.649 237.639 586.717 237.226 586.434 236.062C586.465 235.268 586.586 234.983 587.062 234.349L588.938 234.228L588.845 233.93C583.194 231.659 577.62 232.211 571.983 234.117C570.612 234.581 569.191 235.395 567.75 235.487C566.992 234.732 567.002 234.688 566.855 233.623C568.286 230.427 571.576 228.728 574.6 227.316Z"/>
	<path fill="#242424" transform="scale(0.666667 0.666667)" d="M572.264 321.739L579.651 329.129C582.153 331.459 585.12 333.736 587.312 336.339C592.599 342.616 595.974 351.365 599.261 358.843C599.752 357.396 599.807 355.72 600.118 354.213C600.513 352.297 601.197 350.498 601.887 348.675C602.422 351.27 602.082 354.178 601.989 356.811C601.905 359.225 602.01 361.622 602.135 364.032C602.227 366.524 602.826 370.104 601.44 372.263C599.835 371.579 597.28 363.159 596.432 361.233C592.72 352.801 588.48 344.071 583.196 336.521C579.664 331.475 575.552 326.973 572.264 321.739Z"/>
	<path fill="#030303" transform="scale(0.666667 0.666667)" d="M590.657 281.204L591.403 281.278L622.72 281.152C621.932 284.686 621.412 288.258 618.165 290.441C617.267 291.044 616.218 291.464 615.228 291.895C614.834 292.566 615.055 293.441 615.1 294.214C615.206 296.037 615.805 299.415 615.265 301.069C615.032 301.783 613.696 303.139 613.142 303.671C611.999 304.769 610.475 305.848 608.931 306.274C607.839 306.574 606.919 306.391 605.95 305.822C603.752 304.534 600.886 301.446 600.365 298.926C600.23 298.273 600.336 297.702 600.455 297.057L601.125 296.673C604.019 297.755 605.963 302.415 609.52 300.767C612.095 299.574 613.248 295.258 614.07 292.764L614.449 291.523L608.083 291.839C604.666 292.067 602.57 292.9 599.749 290.198C598.49 288.993 597.618 287.372 596.745 285.879C602.007 286.777 606.499 287.786 611.898 287.566C613.23 287.512 615.14 287.443 616.312 286.781C616.905 286.445 617.272 285.747 617.607 285.188L617.438 284.376C615.158 283.848 612.166 284.321 609.821 284.408C605.462 284.57 600.613 284.227 596.395 285.315C594.961 285.685 591.884 285.625 590.596 284.868C589.714 284.349 588.937 283.599 588.384 282.748L588.586 282.142L589.125 281.816C589.857 281.188 589.664 281.31 590.657 281.204Z"/>
	<path fill="#030303" transform="scale(0.666667 0.666667)" d="M630.181 225.119C633.607 224.949 637.893 225.445 641.03 226.783C642.298 227.323 643.314 228.037 643.811 229.312C643.171 230.016 642.659 230.883 641.625 230.968C641.048 231.016 639.813 230.552 639.208 230.421C635.29 229.576 632.821 229.435 628.929 230.684C628.609 231.244 628.051 232.463 627.375 232.632C625.764 233.035 624.222 232.001 622.618 233.062C622.293 234.032 621.698 234.939 622.125 235.891C623.573 235.851 624.602 235.64 625.688 236.642L625.568 237.188L621.938 237.697C617.676 241.287 622.391 264.783 621.283 270.562C620.479 271.488 619.861 272.057 618.68 272.46C614.561 273.866 611.404 269.331 607.926 267.696C606.707 267.811 605.357 268.698 604.257 269.255C602.562 270.11 600.656 271.254 598.773 271.555C597.372 271.779 596.667 271.795 595.561 270.938C595.214 266.748 595.531 261.62 596.568 257.554C597.81 260.827 598.055 264.896 598.718 268.351C601.038 266.086 602.45 264.544 605.812 264.467L617.084 268.827C616.512 263.647 615.951 258.384 615.853 253.173C615.711 245.696 616.371 238.066 616.825 230.599C620.606 228.212 625.831 226.107 630.181 225.119Z"/>
	<path fill="white" transform="scale(0.666667 0.666667)" d="M378.587 153.18C390.26 152.908 404.016 153.448 415.191 156.99C426.981 160.727 436.156 168.583 441.801 179.603C451.789 199.101 442.719 212.291 436.722 230.875C436.068 232.9 433.401 240.109 434.261 241.795C436.872 241.845 438.13 237.201 440.53 236.079C442.562 235.129 448.175 233.415 450.308 234.085C450.593 234.562 450.808 235.008 450.933 235.554C451.397 237.582 451.292 239.812 451.356 241.891C451.626 250.733 449.889 261.179 444.666 268.52C442.538 271.511 439.317 272.153 435.956 272.824C435.847 270.871 436.058 267.129 435 265.564L434.062 265.46C433.149 265.987 432.96 265.964 432.658 267C431.397 271.322 432.111 276.16 431.088 280.546C430.141 284.607 428.214 288.525 426.459 292.293L418.516 308.489L418.039 307.186C416.376 302.694 413.106 293.349 408.511 291.411C407.631 291.04 407.519 291.012 406.688 291.363C406.469 292.709 407.263 293.878 407.887 295.052C410.274 299.539 413.517 302.899 415.098 307.882C415.47 309.055 415.92 310.429 415.729 311.671C415.448 313.495 416.049 316.449 415.275 317.999C414.973 318.603 414.058 318.772 413.47 318.902C411.775 319.278 409.568 322.147 408.515 323.569L408.188 324.016C407.717 323.862 407.355 323.703 406.922 323.452L406.5 323.197L405.67 323.438L405.556 323.988L405.389 324.75C405.229 325.635 405.171 326.208 404.609 326.962C404.113 327.627 403.771 328.268 402.938 328.39C402.677 327.2 402.726 326.485 401.812 325.649C400.384 326.994 399.918 330.143 399.196 332.062L398.625 332.306C397.997 331.151 397.964 330.69 396.75 330.145C395.842 330.783 396.243 332.733 395.975 333.938C395.068 334.118 394.425 334.023 393.524 333.918L393.583 334.465L393.188 334.898C393.196 334.408 393.27 333.643 393.106 333.188C392.683 332.006 392.203 331.984 391.125 331.594L390.562 332.022C390.6 333.22 390.806 334.396 390.108 335.438L389.438 335.347L387.392 331.952L385.402 335.755L382.852 331.478L378.319 335.883C378.113 334.497 378.073 332.7 377.25 331.539L376.312 331.552L374.438 333.805L373.792 333.188C373.497 332.081 373.296 331.104 372.566 330.187L371.552 330.264C370.987 331.067 370.649 331.62 369.768 332.104C368.988 331.055 369.59 328.384 369.673 327L369 326.534C367.758 327.058 366.914 329.213 366.265 330.373C366.077 328.388 366.462 325.946 365.812 324.089L365.062 324.141L363.905 326.036L363.33 326.062C362.515 324.84 362.236 323.98 362.097 322.511C362.04 321.899 361.893 321.882 361.5 321.432L360.562 321.923L357.606 319.688C356.632 318.692 356.874 317.995 356.852 316.688L356.247 316.374L355.431 317.162L354.938 317.082C350.79 306.364 344.849 296.079 341.254 285.203C339.836 280.914 339.184 276.238 338.301 271.809C337.966 270.123 337.746 268.028 337.104 266.438C336.643 265.293 335.761 265.05 334.738 264.562L334.136 264.938L333.91 272.838C330.601 272.136 327.13 271.383 324.709 268.822C323.003 267.016 322.063 264.621 321.262 262.312C319.146 256.219 318.555 250.201 318.055 243.814C317.879 241.561 317.447 238.87 317.704 236.625C317.873 235.149 317.968 234.513 319.125 233.623C321.754 234.007 324.215 235.465 326.685 236.438C327.478 236.224 327.853 236.127 328.688 236.214C330.526 240.359 333.95 244.695 337.264 247.776C336.287 243.659 334.302 240.114 332.812 236.183C330.895 231.122 329.437 225.764 327.818 220.588C324.14 208.829 320.849 195.651 327.624 184.318C329.426 181.303 331.812 178.869 334.258 176.38C340.611 169.916 345.614 164.232 348.172 155.319L378.587 153.18Z"/>
	<path fill="#030303" transform="scale(0.666667 0.666667)" d="M373.941 265.312L374.452 265.629C373.48 268.313 372.144 270.6 370.718 273.051L373.473 277.688L373.094 278.438L372.188 278.3C371.365 277.763 370.417 277.118 369.79 276.358C368.688 275.022 368.438 273.396 368.629 271.713C368.938 268.994 371.943 266.918 373.941 265.312Z"/>
	<path fill="#030303" transform="scale(0.666667 0.666667)" d="M319.718 243.593C324.595 247.908 327.344 253.973 329.913 259.866L329.438 260.603C328.255 260.899 326.707 261.543 325.561 261.188C325.75 255.269 321.892 249.102 319.718 243.593Z"/>
	<path fill="#030303" transform="scale(0.666667 0.666667)" d="M447.865 243.188L448.992 243.188L448.492 244.126C447.548 246.114 446.881 248.318 446.103 250.382C444.593 254.387 442.698 257.661 444.224 261.964L444.417 262.5L444.188 262.895L443.212 261.938L440.19 258.364C440.897 255.057 442.048 251.805 443.435 248.725C444.47 246.427 445.36 244.136 447.865 243.188Z"/>
	<path fill="#030303" transform="scale(0.666667 0.666667)" d="M408.605 238.201C415.158 237.409 420.019 239.496 425.279 243.194C422.85 242.922 420.355 241.433 417.938 241.652L416.922 243.754C416.637 244.157 416.328 244.513 415.969 244.853C414.126 246.599 412.491 246.84 410.052 246.792C407.291 246.738 404.883 246.474 402.885 244.386C402.541 243.006 402.499 242.791 402.938 241.358C404.683 239.531 406.178 238.842 408.605 238.201Z"/>
	<path fill="#030303" transform="scale(0.666667 0.666667)" d="M355.905 237.493C358.828 237.278 362.3 237.581 364.75 239.347C366.012 240.257 366.865 241.623 366.999 243.188C367.091 244.254 366.688 245.179 365.917 245.917C364.492 247.283 357.856 245.98 355.701 245.753C354.534 245.346 353.94 244.895 353.062 244.032C352.724 243.185 352.41 242.559 352.568 241.632L352.688 241.027C351.069 240.245 347.358 242.852 345.22 242.021L345.188 241.445C348.606 239.3 351.925 238.101 355.905 237.493Z"/>
	<path fill="#030303" transform="scale(0.666667 0.666667)" d="M395.182 260.469C397.421 262.528 402.97 266.546 403.519 269.593C403.91 271.76 403.297 274.442 401.953 276.188C401.599 276.647 400.362 278.138 399.881 278.346C399.752 278.403 398.418 278.17 398.246 278.149C396.572 277.952 394.81 277.567 393.134 277.843C391.911 278.045 391.119 279.045 390.437 280.041C389.968 280.727 389.515 281.623 388.837 282.124C387.895 282.821 386.099 282.9 385.006 282.568C383.467 282.101 382.877 280.681 382.105 279.398C381.292 278.046 380.853 277.631 379.312 277.26C378.005 278.13 377.135 278.665 375.562 278.862C374.992 278.492 374.745 278.017 374.362 277.466C374.295 276.241 374.104 275.855 374.812 274.819C376.576 274.373 378.994 274.16 380.784 274.64C383.471 275.36 385.071 279.236 386.308 281.48C387.557 278.983 388.628 276.493 391.274 275.179C392.67 274.485 394.496 274.249 395.976 274.778C396.924 275.117 397.831 275.363 398.812 275.591C399.726 275.144 400.147 274.721 400.535 273.75C401.826 270.518 398.908 267.915 397.496 265.312C396.646 263.746 395.923 262.089 395.182 260.469Z"/>
	<path fill="#030303" transform="scale(0.666667 0.666667)" d="M396.132 309.938L397.13 309.746L397.908 310.312C397.891 312.225 397.34 312.911 396.06 314.326C393.099 317.6 389.381 319.041 384.987 319.169C381.212 319.279 378.39 317.975 375.66 315.442L372.868 310.5L373.125 310.05C376.666 309.973 378.112 311.509 381.157 312.752C385.709 314.61 392.005 311.688 396.132 309.938Z"/>
	<path fill="#030303" transform="scale(0.666667 0.666667)" d="M355.397 229.574C359.993 229.275 367.896 231.296 371.372 234.304C375.521 237.896 376.355 243.272 376.7 248.48L376.125 249.005L375.631 248.625C375.746 246.914 375.685 244.769 375.279 243.09C374.918 241.598 370.759 239.412 369.399 238.49C365.705 236.596 361.352 234.907 357.188 234.506C351.124 233.923 346.258 236.799 341.725 240.491L343.079 237.572C345.466 233.313 350.979 230.943 355.397 229.574Z"/>
	<path fill="#030303" transform="scale(0.666667 0.666667)" d="M410.069 230.758C410.641 230.721 411.179 230.688 411.75 230.754C417.904 231.459 425.777 235.732 429.707 240.362C424.115 239.099 419.524 235.486 413.594 235.213C407.683 234.941 403.105 237.436 398.885 241.315L398.766 241.621C397.501 244.418 397.546 247.691 397.226 250.71C396.865 254.111 396.226 257.737 395.078 260.956L394.929 260.284C394.169 256.704 394.125 252.879 394.1 249.223C394.092 248.06 393.925 246.31 394.322 245.212C394.758 244.004 396.393 242.831 397.125 241.688L396.879 240.663C396.639 238.927 397.423 236.819 398.487 235.464C401.144 232.085 406.064 231.279 410.069 230.758Z"/>
	<path fill="#030303" transform="scale(0.666667 0.666667)" d="M378.774 285.369C381.401 284.855 381.961 286.256 384.101 286.694C384.349 286.745 385.653 286.249 385.95 286.165C387.834 285.639 389.563 285.03 391.5 285.608L385.628 287.374C388.933 288.011 392.275 287.739 395.48 288.998C396.562 289.423 397.985 290.18 398.374 291.35C398.679 292.267 398.614 292.984 398.21 293.812C395.017 295.206 390.799 297.358 387.271 297.438C385.404 297.481 383.336 296.781 381.562 296.241C380.239 295.839 378.123 294.78 376.814 294.698C374.614 294.56 372.115 296.554 369.785 295.751C369.151 295.533 369.207 295.131 369.001 294.562C369.42 293.525 370.326 293.001 371.25 292.442C372.651 291.594 375.742 289.697 377.307 289.544C379.029 289.375 382.716 291.269 384.562 291.667C386.635 292.114 388.881 291.663 390.686 290.591L390.624 290.062C387.64 288.573 383.379 289.692 380.665 288.188L380.844 286.875L380.438 286.407C378.958 286.375 378.024 287.083 376.687 287.584C373.555 288.757 370.458 289.547 367.555 291.284C366.071 292.172 364.503 293.212 364.081 294.938C364.916 295.836 365.726 296.387 366.868 296.854C369.447 297.906 372.231 298.675 374.878 299.555C378.529 300.769 382.44 302.302 386.34 302.19C390.247 302.078 393.976 300.723 397.547 299.252C399.98 298.331 402.579 297.197 404.711 295.695C403.58 294.117 401.561 292.893 400.117 291.562L393.672 285.081C398.473 286.616 402.002 288.96 405.856 292.175C406.562 294.165 406.912 295.606 406.843 297.75C406.666 298.044 406.56 298.395 406.312 298.633C405.636 299.286 403.236 299.998 402.3 300.428C399.494 301.719 396.79 303.277 393.938 304.461C390.709 305.8 386.941 306.701 383.438 306.32C379.865 305.931 376.555 304.135 373.316 302.72L366.436 300.036C365.391 299.594 363.07 298.6 362.573 297.562C362.207 296.8 362.018 295.771 361.688 294.96C356.814 298.986 356.81 306.712 354.286 312.099C354.191 307.7 354.497 302.731 356.379 298.688C358.902 293.266 364.699 289.637 370.187 287.826C372.858 286.945 375.591 286.627 378.243 285.582L378.774 285.369Z"/>
	<path fill="#242424" transform="scale(0.666667 0.666667)" d="M395.15 184.656C405.325 183.986 420.142 183.67 428.829 189.928C431.981 192.198 433.975 195.366 434.6 199.212L434.701 199.875C435.632 205.818 432.782 211.733 430.167 216.912C430.783 213.309 431.622 209.537 431.202 205.875C430.689 201.395 429.236 197.577 425.519 194.752C418.664 189.54 407.913 189.877 399.759 190.025C389.975 190.204 380.211 191 370.544 192.524C367.78 193.214 365.28 193.255 362.456 193.248C361.702 193.246 359.477 192.986 358.865 193.229C357.821 193.644 356.08 195.757 354.938 196.485C352.875 196.708 351.201 195.878 349.32 195.141C347.673 196.043 346.305 197.902 344.971 199.225C343.994 200.194 342.865 200.927 341.852 201.841C337.919 205.383 337.969 213.09 337.76 217.957C336.602 214.612 336.15 211.681 336.344 208.147C336.88 198.38 345.488 191.896 352.233 185.847L353.615 192.001C355.676 190.609 357.306 188.645 359.28 187.109C359.822 186.688 359.494 186.825 360.378 186.938C360.411 187.953 360.357 188.8 360.938 189.682C366.195 189.949 371.598 188.118 376.748 187.163C382.864 186.03 388.952 185.186 395.15 184.656Z"/>
	<path fill="white" transform="scale(0.666667 0.666667)" d="M527.391 325.688L528.454 325.688L529.959 332.178C531.922 339.112 537.02 344.943 541.93 350.01C544.799 352.97 547.685 356.116 550.837 358.77C562.388 368.493 576.271 376.694 589.589 383.759L603.408 390.638C611.687 384.661 619.401 377.785 625.449 369.507C630.167 363.049 633.826 354.576 632.031 346.412C631.295 343.067 629.765 340.013 628.642 336.8C627.329 333.043 626.68 329.246 626.069 325.325C635.962 331.395 645.578 337.564 656.198 342.334L672.303 348.947C674.94 349.956 678.981 350.838 681.254 352.395C682.275 353.095 682.6 355.103 682.906 356.25L685.621 366.16C687.85 373.516 691.076 380.566 693.232 387.938L701.487 421.969L709.436 452.561L685.163 461.348C687.274 454.372 689.381 446.914 690.305 439.688C691.141 433.145 690.581 426.755 690.512 420.213C690.425 411.896 690.834 403.418 689.694 395.165L679.032 462.102L671.964 461.623L674.293 408.467C674.3 405.943 674.728 402.423 674.062 400.018L673.352 400.352C672.258 401.78 671.786 403.336 671.201 405.012C667.902 401.727 664.334 399.752 659.703 399.032C652.527 397.917 647.973 400.953 642.435 404.86L642.546 414.415C642.756 423.973 644.72 431.349 651.87 438.097C653.833 439.949 657.074 442.7 659.909 442.479C663.294 442.216 665.448 439.282 667.52 436.932C667.497 447.111 665.883 457.056 664.444 467.108C660.698 493.292 655.189 519.102 648.701 544.736L632.227 601.125C630.965 604.236 629.633 607.652 627.48 610.275C624.647 613.727 620.769 616.745 617.401 619.677C606.931 628.792 595.962 636.679 584.512 644.497C572.197 652.905 559.775 660.835 546.46 667.606C532.981 674.459 518.961 679.964 505.077 685.897C515.79 675.158 524.179 663.37 532.039 650.438C542.336 633.496 551.501 616.379 558.499 597.796C561.62 589.51 564.708 581.144 564.999 572.193C565.175 566.807 564.247 561.389 563.453 556.079L560.379 536.449L554.335 504.038L551.304 488.072C554.566 483.852 560.611 480.299 564.837 476.995L576.829 466.924C576.668 463.824 575.203 460.519 574.117 457.647L568.777 443.854L550.48 398.547C547.387 390.953 544.724 383.117 541.28 375.679C535.207 362.562 523.859 356.569 511.395 350.834C505.952 348.329 500.477 345.856 494.851 343.786C504.449 340.297 513.816 337.503 522.761 332.38L523.473 334.312C526.47 341.304 531.832 348.569 538.209 352.807C541.381 354.915 544.846 356.347 548.369 357.753C545.919 354.996 542.969 352.851 540.265 350.369C534.37 344.956 528.416 338.227 526.729 330.16C526.325 328.226 526.373 327.278 527.391 325.688Z"/>
	<path fill="white" transform="scale(0.666667 0.666667)" d="M121.608 500.782C119.261 498.05 115.389 495.687 112.521 493.388L97.7424 480.866C92.0353 475.76 86.2576 470.569 81.0264 464.97C78.0136 461.745 75.499 458.151 72.3509 455.041C74.2353 461.436 77.4511 466.425 81.9656 471.298L61.9626 463.476L60.4348 422.718C60.3041 417.012 59.6278 410.447 60.6178 404.853C61.4642 400.07 63.6672 395.379 66.7438 391.621C71.9068 385.314 79.083 380.71 85.7951 376.217L112.606 359.123C117.698 356.031 122.964 353.276 127.863 349.873L126.701 362.911C129.092 367.977 133.572 371.685 137.686 375.355C143.676 380.698 150.166 386.089 156.977 390.361C161.042 385.994 166.339 382.164 170.809 378.16L205.436 347.561L210.001 343.916C210.153 343.794 211.022 343.164 211.071 343.06C211.203 342.778 211.149 341.404 211.169 341.016C211.265 339.109 211.194 336.898 211.608 335.039C212.094 332.855 214.075 330.27 215.496 328.608L273.384 343.103L263.976 347.519L248.238 356.062C243.731 358.659 238.605 361.568 235.032 365.414C232.881 367.729 231.369 370.545 229.799 373.27C223.718 383.824 219.794 395.803 215.428 407.152L193.572 468.019C197.412 471.109 202.61 473.725 207.108 475.757L207.558 475.957L205.3 495.923L198.481 553.127C197.995 559.239 196.817 566.641 198.13 572.648L198.299 573.375C200.014 581.068 203.319 588.549 206.44 595.766C211.094 606.528 216.456 616.946 222.032 627.253C228.021 638.322 234.271 649.11 241.54 659.402C248.256 668.91 255.882 677.827 263.418 686.687L199.741 654.938C185.339 646.026 171.664 636.624 158.598 625.835C153.73 621.815 148.666 617.749 144.37 613.108C138.019 606.247 132.533 598.269 127.66 590.308C123.667 583.786 119.969 577.027 117.33 569.833C114.359 561.73 112.58 553.36 110.479 545.017L101.117 506.288L96.5817 484.655C100.812 488.423 105.272 491.746 109.826 495.104C112.284 496.916 114.768 499.028 117.474 500.44L118.125 500.069L119.885 501.215C120.401 501.532 120.247 501.471 120.777 501.991C121.292 502.496 121.429 502.626 122.103 502.773L122.812 503.625L124.031 503.439C123.23 502.657 122.338 502.084 121.406 501.469L121.608 500.782Z"/>
	<path fill="#030303" transform="scale(0.666667 0.666667)" d="M117.474 500.44L118.125 500.069L119.885 501.215C120.401 501.532 120.247 501.471 120.777 501.991C121.292 502.496 121.429 502.626 122.103 502.773L122.812 503.625L124.031 503.439C123.23 502.657 122.338 502.084 121.406 501.469L121.608 500.782C123.815 502.08 125.851 503.869 127.891 505.432C130.936 507.766 133.947 509.804 136.279 512.891C129.767 509.696 123.23 504.843 117.474 500.44Z"/>
	<path fill="white" transform="scale(0.666667 0.666667)" d="M431.854 321.535C433.524 322.014 436.037 322.372 437.42 323.358C435.283 336.461 433.269 349.719 432.335 362.967C431.898 369.156 431.376 375.045 432.165 381.252C440.259 364.265 441.164 344.528 444.565 326.291C457.582 332.047 469.417 340.666 482.245 346.897L503.582 356.649C510.328 359.601 518.251 362.384 524.072 366.937C527.102 369.307 529.78 372.126 531.685 375.482C538.127 386.827 542.106 400.282 546.865 412.457L567.357 462.856C558.804 472.098 547.393 480.333 536.828 487.124C533.029 489.567 529.106 492.238 524.803 493.706L524.25 493.886C521.27 494.897 515.5 492.557 512.382 491.862L500.769 489.549C501.115 486.253 503.779 482.076 505.26 479.011L512.498 464.148C518.186 452.929 523.093 443.035 523.974 430.237C524.33 425.058 523.872 420.61 520.34 416.515C521.052 418.785 522.127 420.754 522.524 423.148C523.564 429.433 520.305 436.733 517.402 442.125C510.681 454.607 501.812 465.214 493.609 476.684L500.185 443.25L505.554 421.123L508.262 405.842C509.219 401.312 512.131 395.754 512.01 391.236L507.371 402.064L495.532 438.549C493.56 445.077 491.056 451.814 490.122 458.578C489.392 463.864 489.324 469.272 489.178 474.599L489.34 510.736L489.468 525.762C489.505 528.411 489.257 531.733 490.412 534.144L498.108 552.138C499.164 554.599 501.305 558.204 501.679 560.799C502.109 563.782 501.076 567.988 500.681 571.023L497.812 599.23C497.667 601.633 497.15 604.103 497.513 606.493C499.037 603.627 499.473 598.899 500.343 595.687C503.22 585.063 507.298 574.153 508.801 563.249C509.011 561.725 508.901 560.416 508.483 558.938C506.452 551.766 502.756 544.623 499.776 537.772C498.805 535.539 497.153 532.687 496.738 530.339C496.18 527.186 496.386 523.525 496.313 520.319L495.66 500.967C507.528 507.802 512.715 518.906 517.991 530.926L525.325 547.852C527.168 552.299 528.854 557.181 531.432 561.254L522.973 528.871C520.734 521.08 517.846 513.086 516.575 505.083C520.291 503.918 524.062 503.559 527.805 502.61C533.524 501.162 538.805 496.234 543.171 492.449C543.699 499.607 546.269 507.342 547.958 514.341L555.084 547.875C556.868 557.768 558.95 567.998 557.381 578.086C556.158 585.951 553.007 593.694 549.988 601.029C537.64 631.028 519.636 660.304 497.112 683.717L492.546 688.589C491.947 689.281 491.119 690.624 490.408 691.14C488.475 692.541 483.482 693.292 481.071 693.98C473.503 696.139 465.638 698.028 458.374 701.051C465.302 693.868 470.834 686.34 475.512 677.526C487.448 655.041 488.765 625.304 481.37 601.169C474.178 577.693 456.872 555.662 435 544.132C428.356 540.629 421.274 538.259 414.081 536.192C399.163 531.907 384.566 530.141 369.135 532.645C363.576 533.547 358.15 535.172 352.781 536.835C338.576 540.968 325.472 549.191 314.928 559.493C295.824 578.156 285.69 605.694 285.401 632.168C285.102 659.539 299.181 684.1 317.817 703.151L287.26 694.063C284.071 693.07 280.061 692.314 277.118 690.832C276.389 690.465 275.818 689.706 275.277 689.119C266.74 679.853 258.535 670.35 251.085 660.177C236.866 640.762 225.171 619.666 215.353 597.732C210.861 587.698 205.742 576.985 205.611 565.775C205.505 556.714 206.678 547.299 207.747 538.312L210.868 512.267C212.398 501.025 214.188 489.863 214.667 478.512C218.415 479.843 222.092 481.003 226.017 481.701L242.136 483.907C246.116 484.345 252.444 484.25 255.846 486.188C256.639 487.991 256.079 489.811 255.604 491.668C253.881 498.392 251.034 504.913 248.775 511.483L232.442 560.768C234.289 558.866 235.64 555.577 236.897 553.2C243.157 541.362 248.193 528.868 253.873 516.747C258.464 506.95 263.401 497.083 269.308 488.01C268.399 492.733 268.41 497.538 268.325 502.331L268.078 521.463C268.026 524.984 268.323 529.453 267.407 532.845C265.156 541.18 258.922 548.787 255.655 556.866C255.45 557.374 254.525 559.145 254.566 559.6C254.665 560.703 256.182 563.123 256.647 564.29L259.768 573.367L266.239 593.457C267.775 598.326 269.182 603.322 271.18 608.023C271.227 603.731 270.505 599.244 269.925 594.996L266.602 574.889L263.92 563.471C263.629 562.267 262.865 559.96 262.987 558.76C263.138 557.271 264.57 554.978 265.251 553.608C268.126 547.826 272.369 541.568 274.109 535.378C274.84 532.777 274.798 529.967 274.838 527.283L274.891 515.303L274.633 475.688C274.536 467.319 274.972 458.693 274.396 450.365C274.046 445.299 273.215 440.092 271.916 435.188C270.334 429.212 266.742 424.23 263.666 418.963L258.117 408.784C259.164 417.852 262.244 426.603 264.423 435.44C267.408 447.547 269.673 460.685 270.68 473.111C259.68 474.886 248.942 476.653 237.761 475.528C227.805 474.525 219.636 471.343 210.787 466.882C208.634 465.796 205.624 464.625 204.076 462.725L238.007 373.528C242.316 369.778 247.935 367.035 252.878 364.172L293.716 342.377L321.761 327.632C324.774 341.6 325.827 356.507 331.465 369.75C332.887 373.092 334.52 376.526 336.999 379.214L330.138 324.517L336.275 322.727L340.757 356.861C341.139 359.389 341.268 364.011 342.512 366.109C344.724 366.466 346.272 367.869 348.05 369.116L353.965 372.926L372.766 384.551C377.112 387.23 381.465 390.184 386.124 392.276C390.399 390.251 394.419 387.03 398.391 384.446L415.949 373.064C419.223 370.769 422.354 368.018 425.862 366.108L426.278 365.89L431.854 321.535Z"/>
	<path fill="#242424" transform="scale(0.666667 0.666667)" d="M242.752 384.938L243.513 384.933L242.881 386.189C240.786 390.422 239.022 394.915 238.54 399.655C237.621 408.693 240.364 418.398 242.583 427.106L251.332 457.125L251.062 457.451L250.463 456.562C248.477 453.323 247.231 449.207 245.856 445.665C241.591 434.68 236.528 422.454 235.649 410.625C234.977 401.597 236.777 391.987 242.752 384.938Z"/>
	<path fill="#242424" transform="scale(0.666667 0.666667)" d="M335.984 426.188L336.293 426.433C336.045 426.725 335.963 426.844 335.625 427.107C331.051 430.667 325.326 433.401 320.476 436.688L307.196 445.969C305.357 447.257 303.573 448.854 301.631 449.954C300.699 450.482 299.343 450.464 298.312 450.283C296.45 449.957 295.133 448.622 294.158 447.08C293.123 445.441 292.869 444.244 293.28 442.357C295.317 437.128 297.656 431.822 300.529 427.001L301.075 430.5C301.473 433.188 302.119 434.971 304.47 436.585C305.549 437.326 306.585 437.268 307.817 437.008L308.438 436.867C312.726 435.916 316.746 433.895 320.757 432.154L335.984 426.188Z"/>
	<path fill="#242424" transform="scale(0.666667 0.666667)" d="M552.189 555.837C551.789 561.885 551.678 567.356 550.378 573.323C548.367 582.558 544.737 591.418 540.968 600.055C533.125 618.024 523.482 636.041 510.676 650.999C516.688 636.48 524.848 622.761 531.598 608.58C537.087 597.049 542.399 585.08 546.704 573.056L552.189 555.837Z"/>
	<path fill="#242424" transform="scale(0.666667 0.666667)" d="M213.144 552.375C214.743 557.525 215.725 562.831 217.505 567.938C221.641 579.804 227.628 591.6 233.034 602.952L248.754 636.655C250.585 641.046 252.573 645.468 253.839 650.062L253.549 650.041C253.015 649.496 253.104 649.684 252.827 649.119C249.47 642.277 245.319 635.941 241.464 629.378C235.17 618.663 229.3 607.762 224.04 596.503C220.385 588.68 216.854 580.706 215.038 572.225C213.629 565.643 213.374 559.076 213.144 552.375Z"/>
	<path fill="#242424" transform="scale(0.666667 0.666667)" d="M344.24 374.062C345.904 374.601 348.594 377.264 350.277 378.299L386.219 400.558L424.43 375.028L424.144 383.035C420.073 385.685 416.236 388.813 412.278 391.641C405.048 396.806 397.395 401.908 389.623 406.22C388.317 406.944 386.381 408.362 385.016 408.656C383.137 409.06 349.704 385.408 345.584 382.284C345.485 382.209 344.699 381.612 344.697 381.607C344.625 381.487 344.716 379.922 344.716 379.732C344.713 378.085 344.59 376.373 344.347 374.745L344.24 374.062Z"/>
	<path fill="#030303" transform="scale(0.666667 0.666667)" d="M451.876 414.844C459.951 414.339 464.429 418.395 471.34 421.558C471.494 429.663 472.393 438.002 469.527 445.746C467.171 452.113 463.581 456.502 457.376 459.334C455.209 459.478 453.467 459.196 451.534 458.155C445.689 455.009 440.795 448.455 438.983 442.12C437.477 436.854 437.608 431.28 437.865 425.87C437.916 424.791 437.763 422.379 438.425 421.563C438.926 420.946 440.334 420.286 441.024 419.843C444.665 417.508 447.633 415.889 451.876 414.844Z"/>
	<path fill="white" transform="scale(0.666667 0.666667)" d="M443.114 437.722C443.969 440.978 445.774 443.62 446.812 446.707C447.291 448.13 447.507 449.715 447.735 451.197C444.585 446.366 442.735 440.79 441.586 435.188C441.42 434.376 441.246 433.619 441.188 432.787C441.006 430.184 440.391 424.512 442.093 422.597L443.066 423.188C443.063 424.07 443.147 424.098 442.691 424.875C442.277 425.581 442.279 426.145 442.316 426.938L442.691 427.5C442.691 428.343 442.627 428.24 443.066 429L443.329 429.54C443.608 430.099 443.903 430.532 444.281 431.023C442.956 433.141 442.268 434.058 442.731 436.607L442.856 437.557L443.114 437.722Z"/>
	<path fill="#030303" transform="scale(0.666667 0.666667)" d="M442.093 422.597C443.13 421.123 446.966 418.917 448.699 418.379C451.985 417.358 457.332 417.715 460.474 418.993C462.285 419.73 464.027 420.991 465.742 421.938C467.114 422.563 467.664 422.659 468.519 423.938C469.217 433.521 468.181 444.987 461.716 452.544C459.919 454.644 458.173 456.097 455.438 456.685C453.076 455.99 449.797 453.869 448.446 451.688L448.255 451.147C449.37 449.676 449.502 449.365 451.229 448.799C450.647 448.145 450.885 448.361 450.275 447.853C447.03 445.146 445.566 441.827 443.905 438L443.114 437.722L442.856 437.557L442.731 436.607C442.268 434.058 442.956 433.141 444.281 431.023C443.903 430.532 443.608 430.099 443.329 429.54L443.066 429C442.627 428.24 442.691 428.343 442.691 427.5L442.316 426.938C442.279 426.145 442.277 425.581 442.691 424.875C443.147 424.098 443.063 424.07 443.066 423.188L442.093 422.597Z"/>
	<path fill="white" transform="scale(0.666667 0.666667)" d="M445.793 434.4L447.938 433.664C447.047 432.914 445.989 433.052 444.85 432.938C445.436 431.38 447.417 429.545 448.675 428.469C448.792 431.811 448.354 433.6 451.011 436.011L451.312 436.239C452.431 435.709 453.421 435.127 454.449 434.438L454.469 433.968L452.812 433.845C452.203 432.834 452.692 431.79 451.932 431.334C450.624 430.55 450.432 430.249 450.076 428.812C450.404 427.73 450.419 427.356 451.5 426.802C452.504 426.286 453.803 426.641 454.8 426.938C456.062 428.376 455.53 431.35 455.488 433.181C455.398 437.179 455.765 441.554 455.169 445.5C455.081 446.078 455.038 446.148 454.872 446.626L454.125 447.762L453.417 447.888C452.595 448.046 452.247 448.255 451.755 448.936L451.229 448.799C450.647 448.145 450.885 448.361 450.275 447.853C447.03 445.146 445.566 441.827 443.905 438L443.114 437.722L442.856 437.557L442.731 436.607C443.7 435.513 444.428 434.936 445.793 434.4Z"/>
	<path fill="#F5F3F6" transform="scale(0.666667 0.666667)" d="M442.731 436.607C443.7 435.513 444.428 434.936 445.793 434.4C445.849 434.799 445.883 436.03 446.062 436.316C446.681 437.301 448.016 437.019 447.748 438.373C447.636 438.941 448.237 439.626 448.6 440.003L449.434 440.812C449.644 441.854 450.727 443.227 451.688 443.816L452.248 444.002L454.872 446.626L454.125 447.762L453.417 447.888C452.595 448.046 452.247 448.255 451.755 448.936L451.229 448.799C450.647 448.145 450.885 448.361 450.275 447.853C447.03 445.146 445.566 441.827 443.905 438L443.114 437.722L442.856 437.557L442.731 436.607Z"/>
	<path fill="white" transform="scale(0.666667 0.666667)" d="M465.742 421.938C467.114 422.563 467.664 422.659 468.519 423.938C469.217 433.521 468.181 444.987 461.716 452.544C459.919 454.644 458.173 456.097 455.438 456.685C453.076 455.99 449.797 453.869 448.446 451.688L448.255 451.147C449.37 449.676 449.502 449.365 451.229 448.799L451.755 448.936C452.715 449.363 453.284 449.156 454.312 449.03C455.238 449.6 455.811 450.178 456.513 451.011L456.763 451.312L457.417 451.111C457.463 450.204 457.575 449.54 457.89 448.688C459.743 447.321 460.144 445.739 460.946 443.646C459.815 442.5 458.417 441.772 457.04 440.959C456.517 438.684 456.989 435.211 456.948 432.819L462.562 434.664C463.116 434.362 463.662 434.123 464.25 433.894L464.909 434.282C464.817 436.156 466.35 436.298 466.201 438.188C466.143 438.933 465.071 440.637 464.438 440.968C463.45 441.485 462.216 440.677 461.167 441.562L464.25 441.803L464.633 442.312C463.054 444.94 461.697 448.46 459.771 450.75C458.615 452.125 456.931 453.045 455.408 453.959C454.015 452.991 452.87 451.468 451.722 450.213C451.75 450.571 451.747 450.787 451.833 451.12C452.172 452.425 453.286 454.144 454.565 454.688C455.47 455.071 456.482 454.981 457.312 454.481C461.455 451.983 463.981 447.16 465.579 442.815C466.077 441.464 466.817 439.856 466.92 438.412C466.971 437.704 467.012 436.418 466.808 435.75C466.474 434.658 465.753 434.842 466.116 433.5C466.34 432.671 466.664 431.925 466.803 431.062C467.194 428.65 467.053 425.219 465.71 423.248L465.26 423.154L465.184 422.625L465.742 421.938Z"/>
	<path fill="#F5F3F6" transform="scale(0.666667 0.666667)" d="M442.093 422.597C443.13 421.123 446.966 418.917 448.699 418.379C451.985 417.358 457.332 417.715 460.474 418.993C462.285 419.73 464.027 420.991 465.742 421.938L465.184 422.625L465.26 423.154L465.71 423.248L465.52 423.826C465.044 425.448 466.566 428.581 465 429.562C463.963 428.265 464.12 425.76 463.528 424.125L463.859 423.74C464.328 423.164 464.17 423.407 464.438 422.685C461.047 423.326 459.378 420.238 456.375 420.28L456.188 420.616L459.288 422.302L455.484 424.688C457.964 425.481 460.619 421.467 462.57 425.256C463.335 426.742 463.32 429.034 463.795 430.688L463.097 431.625L463.312 432.254L464.365 432.265L464.25 432.767C461.879 433.721 459.533 432.272 457.12 432.029C457.04 429.58 457.406 427.558 455.534 425.745C455.183 425.406 455.021 425.141 454.847 424.688C453.077 424.681 450.54 425.491 449.247 426.753L448.312 427.784L446.941 427.743C446.109 428.852 445.307 430.086 444.281 431.023C443.903 430.532 443.608 430.099 443.329 429.54L443.066 429C442.627 428.24 442.691 428.343 442.691 427.5L442.316 426.938C442.279 426.145 442.277 425.581 442.691 424.875C443.147 424.098 443.063 424.07 443.066 423.188L442.093 422.597Z"/>
	<path fill="white" transform="scale(0.666667 0.666667)" d="M368.969 40.6609C372.601 40.2812 376.467 40.461 380.125 40.4583L403.125 41.213C422.101 42.4933 441.245 45.087 459.75 49.5499C473.494 52.8648 486.902 57.5085 500.068 62.6254C523.222 71.6238 545.734 82.6657 566.332 96.6016C591.612 113.705 615.326 132.703 636.48 154.79C661.716 181.14 683.003 211.857 700.079 244.017C714.727 271.606 726.224 299.913 732.142 330.711C741.513 379.48 737.661 429.388 721.156 476.153C718.365 484.061 715.438 491.958 711.903 499.57C704.651 515.183 695.901 529.69 686.257 543.924C691.513 518.667 693.72 492.929 691.907 467.19L717.925 457.669C717.386 452.318 715.835 447.033 714.575 441.811L708.146 415.981L701.427 387.178C699.178 378.427 696.037 370.086 693.152 361.544C692.169 358.633 691.558 355.595 690.51 352.71C689.58 350.148 688.129 348.561 685.796 347.135C682.531 345.139 678.724 343.839 675.19 342.382L659.372 335.494L625.235 317.877C628.734 309.982 635.467 304.635 639.79 297.356C641.64 294.241 642.686 290.689 643.196 287.115C643.533 284.759 643.65 281.84 644.642 279.675C646.412 275.812 649.608 271.922 651.88 268.306C656.804 260.468 661.446 248.731 661.836 239.402C661.964 236.33 662.046 231.644 659.774 229.337C657.649 227.18 655.408 227.199 652.584 227.1C652.572 221.876 652.721 216.66 652.004 211.476C649.91 196.335 641.537 179.21 629.062 169.945C616.198 160.39 594.86 157.4 579.375 159.736C566.509 161.677 556.736 168.29 549.047 178.728C541.767 188.609 538.653 198.988 539.316 211.2C539.624 216.873 540.753 222.557 541.571 228.174C539.938 228.433 538.277 228.697 536.721 229.274C533.826 230.347 530.879 232.518 529.661 235.422C527.834 239.777 530.077 247.403 531.69 251.625C533.751 257.02 537.075 262.168 541.037 266.366C542.489 267.905 543.828 269.314 545.811 270.147L546.203 270.297C546.487 275.996 547.627 281.684 547.838 287.343C548.156 295.846 543.313 305.881 539.771 313.415L532.875 315.263C529.621 316.447 526.887 318.691 524.14 320.745C522.857 321.704 521.283 322.708 520.264 323.941C519.523 324.837 518.989 326.03 518.495 327.077L518.196 327.719C514.93 329.427 511.295 330.348 507.785 331.426L494.491 335.913C492.36 336.706 490.183 337.478 488.149 338.5C487.626 338.763 485.772 339.988 485.314 340.012C484.834 340.038 463.079 326.611 461.082 325.512C452.408 320.738 442.723 316.419 433.118 313.987L436.299 284.111C436.373 283.162 436.721 276.909 436.804 276.835C436.857 276.788 438.203 276.709 438.324 276.698C442.925 276.274 445.507 275.957 448.705 272.289C450.389 270.357 451.51 267.782 452.506 265.44C456.265 256.598 457.776 246.795 457.098 237.213C456.903 234.454 455.952 231.058 453.687 229.278C452.243 228.144 450.435 227.984 448.675 228.227L448.125 228.312C445.807 228.641 443.76 229.934 441.713 231.014C449.068 218.7 453.535 203.929 451.542 189.562C450.768 183.982 448.833 178.8 445.97 173.954C438.176 160.761 424.628 152.871 410.141 149.161C395.335 146.391 378.838 146.803 363.902 148.186C357.221 148.804 350.368 149.502 343.977 151.635C342.712 156.508 340.505 160.782 337.199 164.621C331.125 171.674 323.876 176.276 320.472 185.438C314.773 200.775 319.452 217.75 325.968 232.039L322.687 229.928C320.936 229.005 318.67 227.746 316.688 228.357C314.987 229.568 313.545 231.436 313.013 233.484C312.32 236.155 312.528 239.298 312.614 242.048C312.9 251.213 314.147 263.427 319.51 271.125C322.673 275.665 328.688 276.003 333.713 276.876L337.211 314.363C333.885 315.007 330.338 316.354 327.119 317.437C316.241 321.095 305.645 326.228 295.514 331.597L285.276 337.209C284.865 337.446 282.641 338.959 282.3 338.947C281.283 338.911 277.743 336.858 276.528 336.386C272.391 334.78 268.04 333.609 263.767 332.422C245.01 327.214 226.162 322.463 206.743 320.524C206.171 313.632 205.844 306.555 204.311 299.806C209.231 295.962 214.1 292.02 217.897 287.006C221.969 281.63 225.911 272.742 224.819 265.88L224.716 265.312L224.515 264.152C223.895 261.306 221.674 258.936 219.225 257.486C216.358 255.789 212.674 256.205 209.59 257.085L209.049 257.242C211.299 246.82 212.834 236.587 211.126 225.938C209.642 216.692 207.327 207.851 203.089 199.467C202.201 197.711 201.284 195.448 200.049 193.942C198.791 192.408 196.967 191.14 195.371 189.983C187.226 184.077 177.973 178.88 167.943 177.107C159.735 175.655 151.046 176.41 142.875 177.755C131.394 179.644 114.793 183.394 107.779 193.811C105.562 197.102 104.243 201.609 103.216 205.416C101.174 212.983 100.175 220.686 100.55 228.521C100.965 237.168 103.157 246.395 104.945 254.861C103.413 255.661 101.992 256.731 101.122 258.259C100.035 260.165 99.9278 263.075 99.9317 265.254C99.9485 274.491 102.915 283.288 107.783 291.084C108.648 292.469 109.569 293.864 110.61 295.125C111.582 296.303 113.059 297.489 113.473 298.991C115.404 305.999 118.419 313.002 122.326 319.125C123.696 321.271 125.248 323.303 126.79 325.327C127.118 325.758 128.167 326.837 128.311 327.316C128.723 328.682 128.455 331.289 128.519 332.785C128.653 335.932 128.943 338.96 129.527 342.056C112.119 349.415 95.54 359.375 80.0805 370.194C74.0473 374.417 67.9239 378.559 62.8646 383.967C58.791 388.32 54.8447 393.979 53.2585 399.794C51.1492 407.526 52.2746 417.357 52.4788 425.389L54.0735 467.967L70.6799 474.217C70.8987 479.691 72.1968 485.312 72.9964 490.727C75.8592 510.109 78.9709 529.673 84.954 548.369C82.9895 546.196 81.3229 543.12 79.7644 540.61L71.951 527.877C63.7611 514.122 56.8289 499.963 50.6975 485.18C48.3312 479.475 45.8315 473.747 43.8926 467.882C36.8812 446.674 32.8884 424.099 31.5879 401.811L30.7974 380.102C30.8556 374.264 31.4299 368.42 31.9159 362.605C32.6845 353.408 33.5943 344.339 35.2379 335.25C45.3099 279.555 72.7623 228.43 107.7 184.43L123.897 164.784C150.293 135.186 181.424 108.318 215.54 88.0014C262.244 60.1879 314.717 43.7482 368.969 40.6609Z"/>
</svg>
